# xmcd
#
# Track frame offsets: 
#        150
#        8959
#        15576
#        23072
#        30498
#        37682
#        45648
#        51548
#        57189
#        63232
#        69950
#        77682
#        85198
#        91756
#        98674
#        104401
#        112178
#        118720
#        126634
#        134884
#        141498
#        148590
#        155680
#        163273
#        171096
#        178446
#        184837
#        192867
#        200463
#        205122
#        210183
#        215751
#        220520
#        226427
#        232322
#        239656
#        245449
#        250267
#
# Disc length: 3871 seconds
#
# Revision: 2
# Processed by: cddbd v1.5.2PL0 Copyright (c) Steve Scherf et al.
# Submitted via: ExactAudioCopyFreeDBPlugin 1.0
#
DISCID=340f1d26
DTITLE=Various Artist - Der deutsche Foxmix Vol.1
DYEAR=2006
DGENRE=Schlager
TTITLE0=Intro - Der deutsche Foxmix
TTITLE1=Frank Lars - Nur ma'so
TTITLE2=Ralf Cerne - Der Himmel muss warten
TTITLE3=Magic Lauster - Können diese Augen lügen
TTITLE4=Jörg Bausch - Wetten dass 2006
TTITLE5=Oliver Lukas - Immer wieder (la la la)
TTITLE6=Olaf Henning - Das Spiel ist aus (Game Over)
TTITLE7=Sound Convoy - Pure Lust
TTITLE8=Phillip Engel - Du bist mein Hauptgewinn
TTITLE9=Wilde Herzen - Im Himmel ist der Wahnsinn los
TTITLE10=Timo - Halt!
TTITLE11=Matthias Carras - Ich surf auf Wolke 7
TTITLE12=Nico Gemba - König der Piraten
TTITLE13=Sandy Christen - Sag mir wie die Sterne steh'n
TTITLE14=Jörg Bausch - Hör auf
TTITLE15=Jörg Bausch - Mich trifft der Schlag
TTITLE16=Nadine Norell - Heiße Hände
TTITLE17=Michael Wendler - Das erste Gebet
TTITLE18=Anja Regitz - Das kann nur ein Mann wie du
TTITLE19=Steffen Jürgens - Gina
TTITLE20=Sandy Wagner - Sie tanzt den Rhythmus dieser Nacht
TTITLE21=Oliver Frank - 1000 Küsse und mehr
TTITLE22=Oliver Frank - Italienische Sehnsucht
TTITLE23=Markus Florin - Nun sag schon adieu
TTITLE24=Marco Kloss - S.O.S. Ich sitz im Rettungsboot
TTITLE25=Jörg Bausch - Unglaublich
TTITLE26=Jana - Das ist nicht fair
TTITLE27=Thorsten Sander - L'amore e come
TTITLE28=Olaf Straube - Jäger
TTITLE29=Nadine Norell and Francesco Napoli - Mein Herz spielt verrückt
TTITLE30=Sandy Wagner - Süßes Gift
TTITLE31=Carissma - Leben wir los
TTITLE32=Michael Wendler - Oh, mein Gott
TTITLE33=Bert Silver - Die Götter müssen verrückt sein
TTITLE34=Timo - Wahre Liebe
TTITLE35=Joel Gutje - Kurz davor
TTITLE36=Ralf Cerne - Selbst im Himmel fallen Tränen
TTITLE37=Nico Gemba - Megamix
EXTD=
EXTT0=
EXTT1=
EXTT2=
EXTT3=
EXTT4=
EXTT5=
EXTT6=
EXTT7=
EXTT8=
EXTT9=
EXTT10=
EXTT11=
EXTT12=
EXTT13=
EXTT14=
EXTT15=
EXTT16=
EXTT17=
EXTT18=
EXTT19=
EXTT20=
EXTT21=
EXTT22=
EXTT23=
EXTT24=
EXTT25=
EXTT26=
EXTT27=
EXTT28=
EXTT29=
EXTT30=
EXTT31=
EXTT32=
EXTT33=
EXTT34=
EXTT35=
EXTT36=
EXTT37=
PLAYORDER=
